Coordinates
version=1
nRows=29
nColumns=24
inDegrees=yes

Units are S.I. units (second, meters, Newtons, ...)
Angles are in degrees.

endheader
time	pelvis_tilt	pelvis_list	pelvis_rotation	pelvis_tx	pelvis_ty	pelvis_tz	hip_flexion_r	hip_adduction_r	hip_rotation_r	knee_angle_r	ankle_angle_r	subtalar_angle_r	mtp_angle_r	hip_flexion_l	hip_adduction_l	hip_rotation_l	knee_angle_l	ankle_angle_l	subtalar_angle_l	mtp_angle_l	lumbar_extension	lumbar_bending	lumbar_rotation
      1.77466667	      0.97046264	      3.52014614	     -1.60854511	      1.37930780	      1.02504088	      0.23531738	     14.63214601	     -3.13706183	     -1.49200491	    -59.73265071	      5.07242449	    -16.29152170	      3.21354891	      3.28312872	      9.23508652	      2.98022032	     -7.92796355	      2.33327374	    -14.78573602	      6.94558285	     -0.72811530	     -4.53547605	      2.57060593
      1.77883333	      0.96962160	      3.42281473	     -1.32047267	      1.38382709	      1.02544307	      0.23471747	     15.02845561	     -3.04590818	     -1.64363337	    -59.12676105	      5.17398242	    -16.32864801	      3.06783439	      2.84988381	      9.16072741	      3.32805705	     -7.67166725	      2.38179898	    -14.81767437	      6.86247318	     -0.77453396	     -4.42800042	      2.24630362
      1.78300000	      0.95100769	      3.33351222	     -1.04077283	      1.38837004	      1.02576695	      0.23413896	     15.43788694	     -2.96682268	     -1.78513987	    -58.50704290	      5.29712743	    -16.30975168	      3.01623347	      2.45950458	      9.08459984	      3.58857050	     -7.45772106	      2.47688849	    -14.71915103	      6.83475261	     -0.77961458	     -4.31967943	      2.17859349
      1.78716667	      0.94555003	      3.27067408	     -0.75809273	      1.39286756	      1.02606330	      0.23356632	     15.83683743	     -2.92239339	     -1.92342771	    -57.88493998	      5.41095670	    -16.32021390	      2.86908761	      2.03934981	      9.03689708	      3.91643205	     -7.20309525	      2.51140777	    -14.73289767	      6.75140094	     -0.81728093	     -4.23644598	      1.89643144
      1.79133333	      0.90967064	      3.18688159	     -0.47708666	      1.39738947	      1.02630104	      0.23300909	     16.25148787	     -2.85511269	     -2.05599197	    -57.21922183	      5.50033089	    -16.28791910	      2.82252540	      1.67417903	      8.95748844	      4.18310886	     -6.99870042	      2.60751666	    -14.62264021	      6.72586097	     -0.80942235	     -4.13615124	      1.82293693
      1.79550000	      0.87837380	      3.10616641	     -0.19152260	      1.40186788	      1.02652699	      0.23245790	     16.64934551	     -2.79394503	     -2.18589656	    -56.52476964	      5.59746680	    -16.26157133	      2.77694039	      1.31418579	      8.87854748	      4.45865995	     -6.81056656	      2.69476080	    -14.54225885	      6.70109824	     -0.81572632	     -4.03639017	      1.67960019
      1.79966667	      0.87915769	      3.03433005	      0.08166241	      1.40635254	      1.02677798	      0.23193418	     17.00417008	     -2.74311722	     -2.30118396	    -55.80663528	      5.68252514	    -16.22331832	      2.72707837	      0.91341649	      8.80474000	      4.72892582	     -6.59950672	      2.76641127	    -14.47660970	      6.67291783	     -0.85870825	     -3.94802172	      1.50679236
      1.80383333	      0.87675591	      2.97504825	      0.35335098	      1.41087175	      1.02697633	      0.23140360	     17.35314407	     -2.71258647	     -2.41398337	    -55.07334940	      5.75880355	    -16.17799527	      2.64685736	      0.50385146	      8.74408128	      5.03960828	     -6.37447704	      2.85438574	    -14.47890652	      6.62566004	     -0.88886574	     -3.87095359	      1.23487529
      1.80800000	      0.82821476	      2.90560501	      0.63857197	      1.41533100	      1.02709374	      0.23089190	     17.73885237	     -2.66838612	     -2.52056654	    -54.31072126	      5.84818524	    -16.11956150	      2.61059698	      0.17739710	      8.66380611	      5.30065302	     -6.20226617	      2.91226158	    -14.37769210	      6.60452121	     -0.87841321	     -3.79193899	      1.14743749
      1.81216667	      0.81984902	      2.85692879	      0.90686599	      1.41980470	      1.02722543	      0.23040132	     18.07998318	     -2.64929367	     -2.61263165	    -53.53936715	      5.91474959	    -16.05390297	      2.53903138	     -0.20877939	      8.60505265	      5.58914224	     -5.99791771	      3.00433277	    -14.36292621	      6.56161116	     -0.90109384	     -3.73021757	      0.90170478
      1.81633333	      0.77758031	      2.81080056	      1.17076408	      1.42432271	      1.02728741	      0.22992689	     18.44535208	     -2.63629759	     -2.70025606	    -52.74699625	      5.99849789	    -15.98175877	      2.51921092	     -0.55451677	      8.54195521	      5.82918471	     -5.80190624	      3.06812573	    -14.23234773	      6.55060918	     -0.88975195	     -3.67236191	      0.85663717
      1.82050000	      0.78519859	      2.75043966	      1.46118666	      1.42873950	      1.02741210	      0.22942762	     18.73529194	     -2.61327940	     -2.80493639	    -51.90451230	      6.04403354	    -15.89726125	      2.45474015	     -0.92993492	      8.46419548	      6.13725793	     -5.65052567	      3.16571845	    -14.24380257	      6.50887718	     -0.94261299	     -3.60897734	      0.56333778
      1.82466667	      0.73528848	      2.70228922	      1.73346502	      1.43322329	      1.02741351	      0.22896648	     19.08381822	     -2.60113667	     -2.88422721	    -51.06381685	      6.11040648	    -15.80269921	      2.42933351	     -1.24573084	      8.39345587	      6.37421080	     -5.49754765	      3.23900121	    -14.14543240	      6.49274569	     -0.92891806	     -3.55216625	      0.49789623
      1.82883333	      0.71191177	      2.64600348	      2.01321035	      1.43765363	      1.02745307	      0.22850002	     19.38749031	     -2.58529408	     -2.97287090	    -50.18495984	      6.14415606	    -15.71502062	      2.40554482	     -1.58130539	      8.31059717	      6.63052174	     -5.35169817	      3.33659139	    -14.05844322	      6.47834765	     -0.94006777	     -3.48547285	      0.36975721
      1.83300000	      0.68841494	      2.61419716	      2.27997655	      1.44211667	      1.02743075	      0.22806495	     19.69162278	     -2.59522785	     -3.04395099	    -49.31289350	      6.18101225	    -15.62283791	      2.38139972	     -1.92781459	      8.25013287	      6.87618224	     -5.18747071	      3.42976687	    -13.98284419	      6.46405148	     -0.95396110	     -3.45043696	      0.21715163
      1.83716667	      0.68853301	      2.57544760	      2.53682293	      1.44658773	      1.02742947	      0.22764525	     19.95427148	     -2.59594448	     -3.10843039	    -48.40797115	      6.19672367	    -15.53923605	      2.34441732	     -2.30616793	      8.17910171	      7.13057396	     -5.00812955	      3.54382610	    -13.94639078	      6.43730465	     -0.99044488	     -3.40889791	     -0.00685075
      1.84133333	      0.66621872	      2.54877376	      2.80017627	      1.45101641	      1.02736984	      0.22723410	     20.23871777	     -2.61403647	     -3.17296817	    -47.49904016	      6.21306366	    -15.44950864	      2.31228965	     -2.63756593	      8.11918854	      7.37666111	     -4.87360244	      3.64895515	    -13.87909675	      6.41404082	     -1.01382469	     -3.37950258	     -0.15284805
      1.84550000	      0.61664621	      2.53557957	      3.04154312	      1.45548101	      1.02723033	      0.22685931	     20.54919578	     -2.64258930	     -3.20977314	    -46.58874510	      6.24319879	    -15.35780677	      2.30394034	     -2.95012879	      8.07099020	      7.59085272	     -4.71416717	      3.74721028	    -13.74575654	      6.41111278	     -0.98614241	     -3.36568922	     -0.18756747
      1.84966667	      0.60690234	      2.48557349	      3.31870196	      1.45990211	      1.02716492	      0.22643001	     20.78298479	     -2.64515239	     -3.29752882	    -45.61365195	      6.22817958	    -15.26663682	      2.28909163	     -3.27311429	      7.97971505	      7.80749986	     -4.62098438	      3.87596863	    -13.67100001	      6.40333100	     -1.03292865	     -3.30374270	     -0.32184074
      1.85383333	      0.57673543	      2.45758391	      3.57429441	      1.46437765	      1.02702103	      0.22604938	     21.03918923	     -2.66573877	     -3.35668562	    -44.64650649	      6.20947044	    -15.19518564	      2.27570672	     -3.59599358	      7.90905018	      8.02473645	     -4.48261463	      4.00056684	    -13.57371746	      6.39624906	     -1.03682670	     -3.27531575	     -0.44902572
      1.85800000	      0.55193464	      2.43659896	      3.82156206	      1.46881577	      1.02686281	      0.22568998	     21.28508511	     -2.69438571	     -3.41562582	    -43.66983162	      6.18937749	    -15.12400051	      2.26464233	     -3.91772333	      7.84328132	      8.23335497	     -4.35393816	      4.13616554	    -13.47415460	      6.39139848	     -1.06288094	     -3.25857694	     -0.56629587
      1.86216667	      0.55087790	      2.41235645	      4.07127805	      1.47329607	      1.02672871	      0.22532845	     21.48331802	     -2.71698161	     -3.46827828	    -42.66124604	      6.12704817	    -15.10069400	      2.24637513	     -4.26815324	      7.76980563	      8.44495207	     -4.22750257	      4.28873906	    -13.39143338	      6.38044824	     -1.09611249	     -3.23162993	     -0.79530703
      1.86633333	      0.50953064	      2.39480229	      4.32409628	      1.47775277	      1.02650234	      0.22497116	     21.72616406	     -2.75522530	     -3.53065223	    -41.66301845	      6.10807798	    -15.02082596	      2.23907841	     -4.56643266	      7.70365051	      8.64321642	     -4.11059021	      4.41027024	    -13.27888143	      6.37731134	     -1.09835799	     -3.21590826	     -0.84571844
      1.87050000	      0.48504471	      2.38062636	      4.57669060	      1.48223352	      1.02627971	      0.22462298	     21.93594981	     -2.79854412	     -3.60174334	    -40.63960143	      6.05823956	    -14.97010216	      2.23155066	     -4.88686259	      7.63624036	      8.84482429	     -3.98695357	      4.55257104	    -13.17150888	      6.37604242	     -1.11035147	     -3.19817239	     -0.93832160
      1.87466667	      0.46966986	      2.37004349	      4.80664292	      1.48673322	      1.02603733	      0.22430587	     22.13032951	     -2.83754316	     -3.65095560	    -39.61368584	      6.01241276	    -14.92550788	      2.22481037	     -5.21650302	      7.57257557	      9.03172713	     -3.87264601	      4.70788956	    -13.06779478	      6.37468543	     -1.13085055	     -3.18215926	     -1.02952726
      1.87883333	      0.48216039	      2.35437092	      5.03663819	      1.49123008	      1.02583496	      0.22401279	     22.27511343	     -2.86405369	     -3.69405657	    -38.55486486	      5.92505006	    -14.93165696	      2.21663731	     -5.58177582	      7.49545280	      9.21994009	     -3.74042815	      4.86440150	    -12.96694599	      6.36927448	     -1.20437274	     -3.16728750	     -1.19307190
      1.88300000	      0.42924097	      2.35173966	      5.26135834	      1.49577254	      1.02549010	      0.22371213	     22.49562511	     -2.92060349	     -3.75907449	    -37.51935196	      5.89683905	    -14.85289193	      2.21373522	     -5.88260293	      7.43770233	      9.41322368	     -3.60292034	      5.00386035	    -12.84551101	      6.36992767	     -1.16554092	     -3.16696206	     -1.22176356
      1.88716667	      0.40792531	      2.33242815	      5.51472107	      1.50028089	      1.02519660	      0.22338289	     22.65536280	     -2.96486961	     -3.85293657	    -36.43823304	      5.81447648	    -14.83345019	      2.20906277	     -6.18245841	      7.35723231	      9.59383238	     -3.52965565	      5.15988374	    -12.75856294	      6.36841937	     -1.18683841	     -3.14261335	     -1.31865442
      1.89133333	      0.40698589	      2.32413535	      5.73897579	      1.50483109	      1.02489830	      0.22312205	     22.78709424	     -3.00088738	     -3.90326502	    -35.35734234	      5.71933579	    -14.85905774	      2.20590454	     -6.53903666	      7.28127004	      9.78688837	     -3.39336911	      5.31665203	    -12.66006483	      6.36203838	     -1.23586647	     -3.13723793	     -1.49118142
